<svg version="1" xmlns="http://www.w3.org/2000/svg" width="122.667" height="122.667" viewBox="0 0 92.000000 92.000000"><path d="M48.3 1.2c-4.4 2.2-5 9.6-1.2 16.9 1.6 3.2 1.8 4.4.8 5.5-1.5 1.9-2.9 1.8-2.9-.2 0-2.3-2.9-6.8-5.2-8.3-3.6-2.2-7.1-2.3-11.8-.3-2.5 1.1-5.9 2.6-7.7 3.2-7.4 2.8-9.1 12.3-2.9 17.2 1.6 1.3 3.2 1.6 6.7 1.2 4.6-.6 4.6-.6 6.1 3.3 1.7 4.3 2.7 9.9 4.3 24.8.3 2.7.8 6.6 1.1 8.5.3 1.9.7 5.7 1 8.4.6 6.9 3.9 8.8 7 4.1 1.4-2.1 1.5-3.9.9-9.8-1.3-12.8-1.3-17.7.1-24.9 1.6-8.4 6-18.2 9.8-22 2.4-2.3 3.1-2.5 5.7-1.6 9.9 3.4 25-6.4 20.2-13.2-1.6-2.3-4.5-3.7-9.4-4.5C67.7 8.9 64 7 64 5.8c0-.4-1.3-1.6-2.9-2.8C57.6.6 51.4-.4 48.3 1.2zm-8.2 35.5c-1.6 3-2 3.3-2.1 1.6 0-1.2-.2-2.7-.5-3.5-.5-1.3 3.7-3.9 4.3-2.6.2.3-.6 2.4-1.7 4.5z"/></svg>